<?xml version="1.0" encoding="iso-8859-1"?>
<!-- Generator: Adobe Illustrator 19.0.0, SVG Export Plug-In . SVG Version: 6.00 Build 0)  -->
<svg version="1.1" id="Layer_1" xmlns="http://www.w3.org/2000/svg" xmlns:xlink="http://www.w3.org/1999/xlink" x="0px" y="0px"
	 viewBox="0 0 491.52 491.52" style="enable-background:new 0 0 491.52 491.52;" xml:space="preserve">
<circle style="fill:#E05B49;" cx="245.76" cy="245.76" r="245.76"/>
<path style="opacity:0.1;enable-background:new    ;" d="M251.801,111.411c4.301,29.184,5.53,57.037,4.916,85.248l-13.312,2.816
	c-7.577,1.741-14.49,5.734-19.815,11.469l-29.133,31.642c-3.276,3.533-7.116,6.349-11.315,8.448l-12.851-12.851h-61.132V386.56
	l102.558,102.558c11.133,1.543,22.486,2.402,34.043,2.402c130.199,0,236.684-101.265,245.152-229.319L352.41,123.699
	C312.832,102.656,295.27,100.506,251.801,111.411z"/>
<path style="fill:#3EA69B;" d="M352.435,123.714c-18.902,46.566-28.4,91.589-35.905,141.62c-25.914-1.932-37.783-3.378-63.416-7.752
	c4.565-50.392,6.007-96.398-1.322-146.171C295.246,100.513,312.821,102.662,352.435,123.714z"/>
<path style="fill:#44C4A1;" d="M304.28,258.488c-15.159-1.622-22.535-2.523-37.643-4.601c0.612-5.634-2.675-10.646-7.35-11.254
	c3.103-39.749,4.032-75.889,1.467-115.561c6.871-1.959,12.311-7.292,11.984-12.754c24.048-4.672,36.423-3.16,58.668,7.171
	c-1.609,5.225,2.412,11.716,8.619,15.273c-11.884,37.905-19.543,73.225-25.945,112.569
	C309.4,248.794,305.022,252.869,304.28,258.488z"/>
<g>
	<path style="fill:#3EA69B;" d="M296.59,163.545c14.539,1.777,23.797,14.938,21.591,26.025
		c-2.207,11.088-13.944,17.888-26.679,16.331c-12.734-1.557-22.521-10.988-22.04-22.287
		C269.943,172.317,282.053,161.768,296.59,163.545z"/>
	<path style="fill:#3EA69B;" d="M301.827,119.949c3.216,0.393,5.473,3.03,5.073,5.66c-0.4,2.63-3.172,4.297-6.224,3.924
		c-3.051-0.373-5.347-2.66-5.113-5.31C295.797,121.572,298.612,119.556,301.827,119.949z"/>
	
		<ellipse transform="matrix(-0.9928 -0.1194 0.1194 -0.9928 542.3889 521.9063)" style="fill:#3EA69B;" cx="286.835" cy="244.699" rx="3.912" ry="4.828"/>
</g>
<path style="fill:#44C4A1;" d="M313.325,189.456c-1.356-0.333-2.034-0.492-3.395-0.799c-1.227,4.544-3.58,8.361-6.997,11.598
	c-1.355-1.781-2.038-2.669-3.423-4.436c2.631-2.546,4.424-5.257,5.334-8.227c-3.632-0.701-5.457-1.002-9.118-1.492
	c-1.342,3.808-2.787,6.543-4.351,8.212c-1.564,1.669-3.654,2.364-6.302,2.142c-2.65-0.222-4.718-1.399-6.256-3.562
	c-1.535-2.163-2.284-4.876-2.224-8.198c-0.955-0.015-1.432-0.019-2.388-0.022c0.078-1.305,0.115-1.958,0.187-3.262
	c0.986-0.005,1.478-0.005,2.461,0.004c0.498-3.758,1.919-7.32,4.38-10.666c1.752,1.364,2.615,2.068,4.314,3.51
	c-1.741,2.209-2.873,4.643-3.442,7.287c3.618,0.149,5.425,0.274,9.023,0.636c0.007-0.063,0.01-0.094,0.017-0.157
	c1.302-3.908,2.823-6.721,4.558-8.406c1.739-1.689,4.079-2.325,6.957-1.811c2.88,0.514,5.048,2.095,6.458,4.61
	c1.415,2.516,1.864,5.516,1.42,9.004c1.353,0.314,2.029,0.479,3.377,0.822C313.677,187.527,313.559,188.17,313.325,189.456z
	 M282.635,188.571c0.627,0.923,1.459,1.419,2.505,1.497c1.045,0.078,1.904-0.202,2.584-0.84c0.679-0.638,1.407-1.905,2.186-3.796
	c-3.279-0.316-4.924-0.431-8.219-0.581C281.691,186.411,282.007,187.648,282.635,188.571z M304.773,180.162
	c-0.583-1.102-1.443-1.764-2.571-1.962c-1.126-0.198-2.075,0.037-2.838,0.695c-0.763,0.662-1.569,1.992-2.409,3.99
	c3.428,0.481,5.138,0.773,8.54,1.449C305.597,182.66,305.358,181.269,304.773,180.162z"/>
<path style="fill:#3EA69B;" d="M382.362,164.093c-31.214,37.634-53.157,77.183-74.679,122.233
	c-23.758-11.185-34.477-16.844-57.266-30.258c18.867-46.453,33.536-89.845,41.063-139.995
	C335.411,121.334,351.281,129.72,382.362,164.093z"/>
<path style="fill:#44C4A1;" d="M298.169,275.375c-13.756-7.012-20.417-10.532-33.992-17.96c2.205-5.157,0.571-11.126-3.641-13.391
	c14.415-36.822,25.747-70.982,34.821-109.774c7.014,0.607,13.663-2.523,14.937-7.854c23.918,4.209,35.094,10.113,52.978,27.992
	c-3.022,4.408-1.127,12.052,3.668,17.684c-22.122,31.896-39.531,62.848-56.925,98.094
	C305.779,267.967,300.491,270.28,298.169,275.375z"/>
<g>
	<path style="fill:#3EA69B;" d="M318.43,181.982c13.129,6.937,18.008,22.836,12.728,32.624c-5.28,9.788-18.262,12.047-29.762,5.971
		c-11.499-6.076-17.954-18.606-14.232-29.217C290.887,180.749,305.303,175.045,318.43,181.982z"/>
	<path style="fill:#3EA69B;" d="M335.962,142.257c2.904,1.535,4.259,4.864,3.122,7.231c-1.136,2.366-4.22,2.958-6.976,1.502
		c-2.755-1.455-4.248-4.466-3.261-6.911C329.834,141.633,333.059,140.723,335.962,142.257z"/>
	<path style="fill:#3EA69B;" d="M287.718,251.568c1.946,1.028,2.652,3.816,1.579,6.221c-1.072,2.406-3.505,3.53-5.435,2.511
		c-1.929-1.019-2.636-3.803-1.58-6.217C283.337,251.668,285.772,250.539,287.718,251.568z"/>
</g>
<path style="fill:#44C4A1;" d="M326.636,212.745c-1.176-0.806-1.766-1.203-2.955-1.986c-2.467,3.895-5.779,6.69-9.923,8.548
	c-0.756-2.188-1.14-3.282-1.929-5.468c3.206-1.482,5.672-3.423,7.386-5.93c-3.205-1.979-4.831-2.923-8.124-4.711
	c-2.362,3.151-4.509,5.241-6.46,6.27s-4.113,0.94-6.534-0.227c-2.422-1.167-4.023-3.036-4.839-5.655
	c-0.814-2.618-0.732-5.477,0.286-8.626c-0.891-0.358-1.338-0.534-2.235-0.882c0.451-1.218,0.674-1.827,1.12-3.046
	c0.927,0.35,1.388,0.528,2.309,0.891c1.555-3.407,3.92-6.296,7.197-8.602c1.25,1.934,1.856,2.917,3.033,4.905
	c-2.273,1.481-4.039,3.396-5.339,5.714c3.352,1.446,5.011,2.217,8.283,3.86c0.025-0.057,0.037-0.086,0.061-0.144
	c2.353-3.261,4.595-5.397,6.71-6.381c2.12-0.986,4.5-0.749,7.053,0.779c2.554,1.529,4.13,3.82,4.726,6.728
	c0.6,2.912,0.152,5.936-1.273,9.106c1.179,0.788,1.765,1.189,2.931,2.001C327.524,211.031,327.228,211.602,326.636,212.745z
	 M298.093,200.838c0.321,1.107,0.959,1.88,1.918,2.332c0.958,0.451,1.845,0.493,2.668,0.129c0.822-0.364,1.871-1.311,3.15-2.836
	c-2.986-1.484-4.496-2.187-7.544-3.517C297.832,198.436,297.77,199.731,298.093,200.838z M321.3,200.792
	c-0.229-1.262-0.844-2.204-1.845-2.8c-0.999-0.595-1.958-0.713-2.864-0.36c-0.908,0.357-2.049,1.336-3.415,2.94
	c3.078,1.695,4.598,2.59,7.594,4.462C321.351,203.473,321.529,202.059,321.3,200.792z"/>
<path style="fill:#FCD462;" d="M337.515,242.621L337.515,242.621c0-10.754-8.528-19.472-19.045-19.472h-1.293
	c-18.192-1.696-32.594-1.084-42.681,0h-2.533v0.292c-9.216,1.14-14.174,2.589-14.174,2.589l-1.012-29.361l-13.355,2.825
	c-7.614,1.703-14.525,5.69-19.812,11.429l-29.147,31.64c-7.253,7.873-17.469,12.352-28.174,12.352h-3.687l-14.401,104.568
	l36.483,0.32c51.845,20.482,114.25,13.277,114.25,13.277h5.361c10.518,0,19.045-8.718,19.045-19.471v0
	c0-7.835-4.537-14.571-11.061-17.66h1.317c10.518,0,19.045-8.718,19.045-19.471v0c0-7.729-4.416-14.386-10.798-17.531
	c8.906-1.631,15.671-9.574,15.671-19.148v0c0-8.729-5.618-16.115-13.36-18.587C331.897,258.736,337.515,251.35,337.515,242.621z"/>
<rect x="109.158" y="238.182" style="fill:#27A2DB;" width="61.128" height="148.367"/>
<circle style="fill:#1C75A1;" cx="139.725" cy="363.162" r="10.721"/>
<g>
</g>
<g>
</g>
<g>
</g>
<g>
</g>
<g>
</g>
<g>
</g>
<g>
</g>
<g>
</g>
<g>
</g>
<g>
</g>
<g>
</g>
<g>
</g>
<g>
</g>
<g>
</g>
<g>
</g>
</svg>
