<?xml version="1.0" encoding="iso-8859-1"?>
<!-- Generator: Adobe Illustrator 19.0.0, SVG Export Plug-In . SVG Version: 6.00 Build 0)  -->
<svg version="1.1" id="Capa_1" xmlns="http://www.w3.org/2000/svg" xmlns:xlink="http://www.w3.org/1999/xlink" x="0px" y="0px"
	 viewBox="0 0 491.52 491.52" style="enable-background:new 0 0 491.52 491.52;" xml:space="preserve">
<circle style="fill:#334D5C;" cx="245.76" cy="245.76" r="245.76"/>
<path style="opacity:0.1;enable-background:new    ;" d="M373.709,122.009c-9.267-10.445-22.835-17.049-37.939-17.049
	c-28.058,0-50.791,22.733-50.791,50.79c0,5.99,1.024,11.776,2.97,17.101l-45.722-45.671l-1.536-1.587
	c-12.288-12.749-29.542-20.633-48.64-20.633c-37.376,0-67.737,30.362-67.737,67.789c0,6.963,1.075,13.67,3.021,19.968h-12.39
	c-5.53,0-9.984,4.454-9.984,9.984v173.875c0,2.611,1.024,5.017,2.662,6.758l0.614,0.614l105.386,105.412
	c10.525,1.376,21.237,2.159,32.137,2.159c135.73,0,245.76-110.031,245.76-245.76c0-2.043-0.104-4.062-0.154-6.093l-117.35-117.35
	L373.709,122.009z"/>
<ellipse style="fill:#FCD462;" cx="192.072" cy="172.759" rx="67.753" ry="67.799"/>
<ellipse style="fill:#F6C358;" cx="192.072" cy="172.759" rx="56.422" ry="56.474"/>
<path style="fill:#DC8744;" d="M189.742,216.715v-7.742c-9.686-0.988-18.379-4.842-26.073-11.556l7.736-9.226
	c5.934,5.161,12.04,8.234,18.336,9.226v-20.575c-7.987-1.907-13.834-4.419-17.543-7.53c-3.709-3.111-5.563-7.724-5.563-13.839
	c0-6.115,2.13-11.116,6.408-15.009c4.278-3.888,9.841-6.007,16.698-6.361v-5.304h6.779v5.407c7.771,0.57,15.119,3.219,22.045,7.957
	l-6.891,9.757c-4.666-3.323-9.711-5.373-15.154-6.154v19.937h0.319c8.125,1.912,14.093,4.492,17.905,7.742
	c3.821,3.254,5.727,7.975,5.727,14.159c0,6.188-2.191,11.228-6.572,15.112c-4.381,3.892-10.169,6.011-17.379,6.365v7.634H189.742z
	 M182.264,148.261c-1.803,1.588-2.7,3.569-2.7,5.938s0.707,4.242,2.122,5.619c1.406,1.381,4.097,2.706,8.056,3.979v-18.349
	C186.559,145.732,184.067,146.669,182.264,148.261z M204.576,194.763c1.975-1.623,2.967-3.672,2.967-6.149
	c0-2.473-0.776-4.436-2.329-5.886c-1.561-1.45-4.459-2.809-8.694-4.082v19.087C199.91,197.382,202.593,196.39,204.576,194.763z"/>
<ellipse style="fill:#2D93BA;" cx="335.77" cy="155.771" rx="50.78" ry="50.811"/>
<ellipse style="fill:#27A2DB;" cx="335.77" cy="155.771" rx="42.307" ry="42.337"/>
<path style="fill:#2D93BA;" d="M334.036,188.72v-5.802c-7.259-0.741-13.775-3.629-19.541-8.661l5.798-6.915
	c4.447,3.868,9.024,6.171,13.743,6.915v-15.421c-5.986-1.43-10.369-3.312-13.148-5.644c-2.78-2.332-4.169-5.789-4.169-10.372
	c0-4.583,1.597-8.332,4.803-11.249c3.206-2.914,7.376-4.502,12.515-4.767v-3.975h5.081v4.053c5.824,0.427,11.332,2.413,16.523,5.964
	l-5.165,7.313c-3.497-2.49-7.279-4.027-11.358-4.612v14.943h0.239c6.089,1.433,10.563,3.367,13.42,5.802
	c2.864,2.439,4.292,5.977,4.292,10.612c0,4.638-1.642,8.416-4.926,11.327c-3.284,2.917-7.621,4.505-13.025,4.771v5.721H334.036z
	 M328.431,137.414c-1.351,1.19-2.023,2.675-2.023,4.45s0.53,3.179,1.59,4.211c1.054,1.035,3.07,2.028,6.038,2.982v-13.752
	C331.651,135.519,329.782,136.22,328.431,137.414z M345.154,172.267c1.48-1.216,2.224-2.752,2.224-4.609
	c0-1.853-0.582-3.325-1.745-4.412c-1.17-1.087-3.342-2.106-6.516-3.06v14.305C341.657,174.23,343.667,173.486,345.154,172.267z"/>
<path style="fill:#DC8744;" d="M347.132,192.717H114.929c-5.505,0-9.969,4.463-9.969,9.969v173.904c0,5.506,4.464,9.969,9.969,9.969
	h232.203c5.506,0,9.969-4.463,9.969-9.969V202.686C357.101,197.181,352.638,192.717,347.132,192.717z"/>
<path style="fill:#EBF0F3;" d="M336.695,374.917h-5.648v-4.657h5.644c0.805-0.002,1.583-0.234,2.256-0.673l2.547,3.897
	C340.07,374.419,338.41,374.914,336.695,374.917z M321.669,374.917h-9.382v-4.657h9.382V374.917z M302.91,374.917h-9.378v-4.657
	h9.378V374.917z M284.15,374.917h-9.378v-4.657h9.378V374.917z M265.395,374.917h-9.382v-4.657h9.382V374.917z M246.635,374.917
	h-9.378v-4.657h9.378V374.917z M227.88,374.917h-9.382v-4.657h9.382V374.917z M209.121,374.917h-9.378v-4.657h9.378V374.917z
	 M190.361,374.917h-9.378v-4.657h9.378V374.917z M171.606,374.917h-9.382v-4.657h9.382V374.917z M152.846,374.917h-9.378v-4.657
	h9.378V374.917z M134.086,374.917h-8.714c-0.305,0-0.609-0.016-0.905-0.048l0.482-4.63l9.137,0.02V374.917z M116.605,366.226v-9.455
	h4.657v9.38L116.605,366.226z M345.459,363.154h-4.657v-9.38h4.657V363.154z M121.262,347.393h-4.657v-9.38h4.657V347.393z
	 M345.459,344.396h-4.657v-9.38h4.657V344.396z M121.262,328.634h-4.657v-9.378h4.657V328.634z M345.459,325.637h-4.657v-9.378
	h4.657V325.637z M121.262,309.876h-4.657v-9.38h4.657V309.876z M345.459,306.879h-4.657v-9.378h4.657V306.879z M121.262,291.119
	h-4.657v-9.38h4.657V291.119z M345.459,288.122h-4.657v-9.38h4.657V288.122z M121.262,272.359h-4.657v-9.378h4.657V272.359z
	 M345.459,269.365h-4.657v-9.38h4.657V269.365z M121.262,253.602h-4.657v-9.38h4.657V253.602z M345.459,250.605h-4.657v-9.378h4.657
	V250.605z M121.262,234.845h-4.657v-9.38h4.657V234.845z M345.459,231.848h-4.657v-9.38h4.657V231.848z M121.262,216.087h-4.657
	v-2.961c0-2.981,1.496-5.733,4.002-7.361l2.538,3.907c-1.178,0.764-1.883,2.056-1.883,3.454V216.087z M340.802,213.104
	c-0.014-2.092-1.587-3.836-3.661-4.061l0.5-4.63c4.434,0.48,7.795,4.204,7.818,8.664L340.802,213.104z M328.014,209.018h-9.378
	v-4.657h9.378V209.018z M309.254,209.018h-9.378v-4.657h9.378V209.018z M290.499,209.018h-9.382v-4.657h9.382V209.018z
	 M271.739,209.018h-9.378v-4.657h9.378V209.018z M252.98,209.018h-9.378v-4.657h9.378V209.018z M234.224,209.018h-9.382v-4.657
	h9.382V209.018z M215.465,209.018h-9.378v-4.657h9.378V209.018z M196.705,209.018h-9.378v-4.657h9.378V209.018z M177.95,209.018
	h-9.382v-4.657h9.382V209.018z M159.19,209.018h-9.378v-4.657h9.378V209.018z M140.431,209.018h-9.378v-4.657h9.378V209.018z"/>
<path style="fill:#F6C358;" d="M359.128,271.497l-41.838,0c-10.292,0-18.582,8.57-18.124,18.962
	c0.437,9.904,9.394,17.321,19.308,17.321h40.654c1.085,0,1.964-0.879,1.964-1.964v-32.355
	C361.092,272.376,360.213,271.497,359.128,271.497z"/>
<circle style="fill:#64798A;" cx="317.179" cy="289.638" r="12.943"/>
<path style="fill:#3A556A;" d="M323.506,282.004c0.744,1.395,1.205,2.963,1.205,4.654c0,5.502-4.461,9.963-9.963,9.963
	c-2.417,0-4.604-0.896-6.329-2.328c1.675,3.144,4.947,5.308,8.759,5.308c5.502,0,9.962-4.461,9.962-9.963
	C327.139,286.554,325.708,283.831,323.506,282.004z"/>
<g>
</g>
<g>
</g>
<g>
</g>
<g>
</g>
<g>
</g>
<g>
</g>
<g>
</g>
<g>
</g>
<g>
</g>
<g>
</g>
<g>
</g>
<g>
</g>
<g>
</g>
<g>
</g>
<g>
</g>
</svg>
